# AST/ASF file generated using VICON BodyLanguage
# -----------------------------------------------
:version 1.10
:name VICON
:units
  mass 1.0
  length 0.45
  angle deg
:documentation
   .ast/.asf automatically generated from VICON data using
   VICON BodyBuilder and BodyLanguage model FoxedUp or BRILLIANT.MOD
:root
   order TX TY TZ RX RY RZ
   axis XYZ
   position 0 0 0  
   orientation 0 0 0 
:bonedata
  begin
     id 1 
     name lhipjoint
     direction 0.543289 -0.788407 0.288535 
     length 2.57127 
     axis 0 0 0  XYZ
  end
  begin
     id 2 
     name lfemur
     direction 0.34202 -0.939693 0  
     length 8.47298  
     axis 0 0 20  XYZ
    dof rx ry rz
    limits (-160.0 20.0)
           (-70.0 70.0)
           (-60.0 70.0)
  end
  begin
     id 3 
     name ltibia
     direction 0.34202 -0.939693 0   
     length 8.13367   
     axis 0 0 20   XYZ
    dof rx
    limits (-10.0 170.0)
  end
  begin
     id 4 
     name lfoot
     direction 0.114037 -0.313314 0.942778   
     length 2.67113   
     axis -90 7.62852e-016 20   XYZ
    dof rx rz
    limits (-45.0 90.0)
           (-70.0 20.0)
  end
  begin
     id 5 
     name ltoes
     direction 1.536e-011 -4.21847e-011 1   
     length 1.32217   
     axis -90 7.62852e-016 20   XYZ
    dof rx
    limits (-90.0 20.0)
  end
  begin
     id 6 
     name rhipjoint
     direction -0.571293 -0.770752 0.282074   
     length 2.63017  
     axis 0 0 0  XYZ 
  end
  begin
     id 7 
     name rfemur
     direction -0.34202 -0.939693 0   
     length 8.60885   
     axis 0 0 -20   XYZ
    dof rx ry rz
    limits (-160.0 20.0)
           (-70.0 70.0)
           (-70.0 60.0)
  end
  begin
     id 8 
     name rtibia
     direction -0.34202 -0.939693 0   
     length 8.07673   
     axis 0 0 -20   XYZ
    dof rx
    limits (-10.0 170.0)
 end
 begin
     id 9 
     name rfoot
     direction -0.121336 -0.333368 0.934956   
     length 2.81602  
     axis -90 -7.62852e-016 -20   XYZ
    dof rx rz
    limits (-45.0 90.0)
           (-20.0 70.0)
  end
  begin
     id 10 
     name rtoes
     direction -1.53491e-011 -4.21808e-011 1   
     length 1.38905   
     axis -90 -7.62852e-016 -20   XYZ
    dof rx
    limits (-90.0 20.0)
  end
  begin
     id 11 
     name lowerback
     direction 0.0136776 0.999869 -0.00861835   
     length 2.14087   
     axis 0 0 0   XYZ
    dof rx ry rz
    limits (-20.0 45.0)
           (-30.0 30.0)
           (-30.0 30.0)
  end
  begin
     id 12 
     name upperback
     direction -0.00789158 0.999804 0.0181308   
     length 2.14151   
     axis 0 0 0   XYZ
    dof rx ry rz
    limits (-20.0 45.0)
           (-30.0 30.0)
           (-30.0 30.0)
  end
  begin
     id 13 
     name thorax
     direction -0.0135231 0.999666 0.0220247   
     length 2.13644   
     axis 0 0 0   XYZ
    dof rx ry rz
    limits (-20.0 45.0)
           (-30.0 30.0)
           (-30.0 30.0)
  end
  begin
     id 14 
     name lowerneck
     direction -0.0392259 0.997317 0.0618018   
     length 1.65045   
     axis 0 0 0   XYZ
    dof rx ry rz
    limits (-20.0 45.0)
           (-30.0 30.0)
           (-30.0 30.0)
  end
  begin
     id 15 
     name upperneck
     direction 0.0765547 0.994276 -0.0745319   
     length 1.66045   
     axis 0 0 0   XYZ
    dof rx ry rz
    limits (-20.0 45.0)
           (-30.0 30.0)
           (-30.0 30.0)
  end
  begin
     id 16
     name head
     direction 0.0241564 0.999031 -0.036785  
     length 1.66594  
     axis 0 0 0   XYZ
    dof rx ry rz
    limits (-20.0 45.0)
           (-30.0 30.0)
           (-30.0 30.0)
  end
  begin
     id 17 
     name lclavicle
     direction 0.967398 0.249018 0.0461573  
     length 3.75176  
     axis 0 0 0   XYZ
    dof ry rz
    limits (-20.0 10.0)
           (0.0 20.0)
  end
  begin
     id 18 
     name lhumerus
     direction 1 -4.48963e-011 -3.05005e-027   
     length 5.93342   
     axis 180 -30 -90   XYZ
    dof rx ry rz
    limits (-60.0 90.0)
           (-90.0 90.0)
           (-90.0 90.0)
  end
  begin
     id 19
     name lradius
     direction 1 -4.48957e-011 1.07006e-026   
     length 3.94763   
     axis 180 -30 -90   XYZ
    dof rx
    limits (-10.0 170.0)
  end
  begin
     id 20
     name lwrist
     direction 1 -4.48978e-011 1.92422e-026   
     length 1.97382   
     axis -1.18182e-014 90 90   XYZ
    dof ry
    limits (-180.0 0.0)
 end
  begin
     id 21 
     name lhand
     direction 1 -4.48931e-011 3.84844e-026   
     length 0.560187   
     axis -2.45563e-014 90 90   XYZ
    dof rx rz
    limits (-90.0 90.0)
           (-45.0 45.0)
  end
  begin
     id 22 
     name lfingers
     direction 1 -4.48952e-011 7.69687e-026   
     length 0.451637   
     axis -4.91126e-014 90 90   XYZ
    dof rx
    limits (0.0 90.0)
  end
  begin
     id 23
     name lthumb
     direction 0.707107 -6.34901e-011 0.707107   
     length 0.648463   
     axis -90 45 2.85299e-015   XYZ
    dof rx rz
    limits (-45.0 45.0)
           (-45.0 45.0)
  end
  begin
     id 24 
     name rclavicle
     direction -0.965946 0.258716 0.00371831   
     length 3.63667  
     axis 0 0 0   XYZ 
    dof ry rz
    limits (-10.0 20.0)
           (-20.0 0.0)
  end
  begin
     id 25 
     name rhumerus
     direction -1 -4.48966e-011 -1.78361e-028  
     length 6.28647   
     axis 180 30 90   XYZ
    dof rx ry rz
    limits (-90.0 60.0)
           (-90.0 90.0)
           (-90.0 90.0)
  end
  begin
     id 26 
     name rradius
     direction -1 -4.48961e-011 1.05248e-026   
     length 3.81645   
     axis 180 30 90   XYZ
    dof rx
    limits (-10.0 170.0)
  end
  begin
     id 27 
     name rwrist
     direction -1 -4.48979e-011 1.92422e-026   
     length 1.90822   
     axis -1.18182e-014 -90 -90   XYZ
    dof ry
    limits (-180.0 0.0)
  end
  begin
     id 28
     name rhand
     direction -1 -4.48937e-011 3.84844e-026   
     length 0.646185   
     axis -2.45563e-014 -90 -90   XYZ
    dof rx rz
    limits (-90.0 90.0)
           (-45.0 45.0)
  end
  begin
     id 29
     name rfingers
     direction -1 -4.48953e-011 7.69687e-026   
     length 0.520971   
     axis -4.91126e-014 -90 -90   XYZ
    dof rx
    limits (0.0 90.0)
  end
  begin
     id 30
     name rthumb
     direction -0.707107 -6.3494e-011 0.707107   
     length 0.748013   
     axis -90 -45 -2.85299e-015   XYZ
    dof rx rz
    limits (-45.0 45.0)
           (-45.0 45.0)
  end
:hierarchy
  begin
    root lhipjoint rhipjoint lowerback
    lhipjoint lfemur
    lfemur ltibia
    ltibia lfoot
    lfoot ltoes
    rhipjoint rfemur
    rfemur rtibia
    rtibia rfoot
    rfoot rtoes
    lowerback upperback
    upperback thorax
    thorax lowerneck lclavicle rclavicle
    lowerneck upperneck
    upperneck head
    lclavicle lhumerus
    lhumerus lradius
    lradius lwrist
    lwrist lhand lthumb
    lhand lfingers
    rclavicle rhumerus
    rhumerus rradius
    rradius rwrist
    rwrist rhand rthumb
    rhand rfingers
  end

#!OML:ASF H:\HAZMAT1\Patient Classification 1\Patient 3\Session 1\dancer.ASF
:FULLY-SPECIFIED
:DEGREES
31
upperback -4.974260 -10.476900 4.002910
rfoot -32.699100 -6.437380
lradius 21.631001
lthumb -22.309999 67.129997
rradius 21.560400
lwrist -37.667801
rhand -43.642502 -60.550098
rhumerus -86.467499 -30.059099 19.325899
lowerneck -1.217860 12.632900 8.949510
lhand -49.709202 38.397999
ltibia 80.119797
head 0.784398 8.219690 -3.933720
rwrist -3.499480
lfingers 7.125020
rtoes 15.655300
lowerback -6.640660 -7.599090 3.341970
rfingers 7.125020
lclavicle 0.000000 0.000000
upperneck -3.165040 16.638500 -8.614560
rfemur -5.401310 14.281900 26.065599
thorax -1.313060 -5.355510 1.718780
rclavicle 0.000000 0.000000
rtibia 46.686199
lfoot 18.992399 15.966300
lhumerus 76.783203 33.487801 36.058601
rthumb -16.476999 -89.870399
root -2.462680 18.285500 10.114100 179.177994 -78.511597 -184.766006
ltoes 19.443300
lfemur -30.829599 -11.101600 -15.428200
32
upperback -3.287150 -6.843650 0.056943
rfoot -31.480000 -10.035000
lradius 20.924299
lthumb -21.476601 70.797302
rradius 22.409700
lwrist -33.565601
rhand -44.961498 -63.170300
rhumerus -79.927002 -29.730200 20.115101
lowerneck -3.414330 13.406400 12.410900
lhand -48.841301 41.967899
ltibia 77.857002
head 6.061380 8.926530 -4.123270
rwrist -5.963550
lfingers 7.125020
rtoes 16.615101
lowerback -4.389950 -5.002790 3.561590
rfingers 7.125020
lclavicle -0.000000 0.000000
upperneck 10.750300 18.540001 -11.653700
rfemur -4.654570 5.421920 31.511000
thorax -1.346420 -3.516350 -2.107760
rclavicle -0.000000 0.000000
rtibia 42.911400
lfoot 13.772200 13.627900
lhumerus 63.110500 37.169601 28.826700
rthumb -17.746599 92.380501
root -2.257470 18.323601 9.855820 82.092400 -85.905701 -87.198898
ltoes 7.649950
lfemur -33.082401 -17.338699 -6.687850
33
upperback -1.466550 -1.988840 -5.157580
rfoot -30.668301 -14.871200
lradius 20.579700
lthumb -17.243799 72.593300
rradius 23.300100
lwrist -24.085199
rhand -44.167500 -59.601299
rhumerus -61.079498 -34.878201 16.131001
lowerneck -2.275240 13.222500 12.128100
lhand -44.439098 43.338299
ltibia 75.178299
head 7.000390 8.836950 -2.543190
rwrist -3.877230
lfingers 7.125020
rtoes 19.471600
lowerback -1.178510 -1.392760 4.159570
rfingers 7.125020
lclavicle -0.000000 0.000000
upperneck 16.152901 17.868601 -6.458430
rfemur -7.559890 0.242968 35.813900
thorax -1.183370 -1.112920 -7.729830
rclavicle -0.000000 0.000000
rtibia 38.365898
lfoot 17.600401 8.076570
lhumerus 34.534500 35.612598 13.075000
rthumb -16.982500 -88.878899
root -1.871260 18.455200 9.614900 32.319302 -76.261398 -34.762100
ltoes 5.912280
lfemur -41.374401 -22.110001 0.970800
34
upperback -0.523313 2.230990 -8.232250
rfoot -30.300800 -16.916700
lradius 20.689899
lthumb -9.012610 68.510201
rradius 23.048000
lwrist -19.673401
rhand -43.701500 -55.858398
rhumerus -31.003300 -40.599602 1.149210
lowerneck -4.407920 11.102300 11.104900
lhand -35.899300 38.722698
ltibia 75.208099
head 7.662570 7.190570 -0.537725
rwrist 0.237778
lfingers 7.125020
rtoes 21.481100
lowerback -0.934910 1.782770 5.279080
rfingers 7.125020
lclavicle -0.000000 0.000000
upperneck 19.943800 13.609600 0.295136
rfemur -12.875300 -3.152850 41.193901
thorax 0.526381 1.083090 -11.769000
rclavicle -0.000000 0.000000
rtibia 35.688999
lfoot 18.094500 8.430870
lhumerus 7.658160 30.933100 5.294280
rthumb -16.533800 -85.174004
root -1.717400 18.485201 9.409590 34.182499 -66.987602 -32.443001
ltoes 4.106660
lfemur -51.336102 -26.031700 9.937320
35
upperback 0.395821 5.053230 -9.946520
rfoot -29.758801 -19.387300
lradius 19.692900
lthumb -0.314394 66.116402
rradius 22.443399
lwrist -17.450500
rhand -42.739201 -50.843498
rhumerus 3.758080 -38.737000 -21.981300
lowerneck -6.562700 8.365730 7.658000
lhand -26.890600 36.136902
ltibia 74.033699
head 7.796740 5.183520 1.859300
rwrist 3.100240
lfingers 7.125020
rtoes 20.851000
lowerback -0.463664 3.859930 3.730210
rfingers 7.125020
lclavicle -0.000000 0.000000
upperneck 21.512501 8.607550 7.248330
rfemur -19.198700 -5.637360 45.341099
thorax 1.945290 2.610370 -12.679300
rclavicle -0.000000 0.000000
rtibia 34.743099
lfoot 20.838301 6.678370
lhumerus -14.096000 28.334999 4.423670
rthumb -15.607200 -80.233902
root -1.812990 18.499901 9.193660 34.701599 -58.926601 -28.114799
ltoes 3.275730
lfemur -61.638802 -28.470800 18.710899
36
upperback 1.291570 7.690330 -10.673200
rfoot -29.327101 -19.607901
lradius 17.744101
lthumb 3.498080 62.142200
rradius 24.492901
lwrist -22.507601
rhand -36.745998 -34.839100
rhumerus 35.211899 -19.647600 -37.993099
lowerneck -6.524360 5.269570 2.973300
lhand -22.943100 32.191200
ltibia 72.656403
head 7.675970 3.006730 4.766510
rwrist 1.390160
lfingers 7.125020
rtoes 20.859200
lowerback 0.092721 5.770680 3.391100
rfingers 7.125020
lclavicle -0.000000 -0.000000
upperneck 22.053801 3.354520 15.057200
rfemur -25.668501 -8.318750 48.725800
thorax 3.309160 4.063280 -13.158200
rclavicle -0.000000 -0.000000
rtibia 34.403999
lfoot 22.765200 6.006630
lhumerus -31.835199 30.776300 6.463520
rthumb -9.829550 -64.589699
root -1.859420 18.509600 8.928330 36.426300 -53.307400 -25.021099
ltoes 3.074780
lfemur -70.295700 -28.228201 25.906000
37
upperback 2.311790 9.967490 -10.378600
rfoot -29.468500 -18.998100
lradius 15.932100
lthumb 7.050620 55.719200
rradius 35.561100
lwrist -26.414499
rhand -18.604799 -12.624800
rhumerus 52.822300 6.164190 -36.094398
lowerneck -5.839740 1.261070 -0.882877
lhand -19.263700 25.856600
ltibia 71.392601
head 7.428380 0.202087 7.969360
rwrist -1.869970
lfingers 7.125020
rtoes 21.216600
lowerback 0.744512 7.393280 4.338370
rfingers 7.125020
lclavicle -0.000000 -0.000000
upperneck 19.868099 -3.022100 23.809000
rfemur -31.003901 -12.760400 54.097301
thorax 4.743890 5.370020 -13.194800
rclavicle -0.000000 -0.000000
rtibia 33.590000
lfoot 25.297100 3.901490
lhumerus -38.625000 31.166901 12.448800
rthumb 7.686570 -42.465099
root -2.001620 18.442600 8.617050 37.495701 -45.913399 -22.796000
ltoes 5.164710
lfemur -77.665604 -26.310200 32.677399
38
upperback 3.101850 11.009300 -10.523100
rfoot -30.450899 -19.644100
lradius 14.279500
lthumb 8.811790 51.105598
rradius 57.655800
lwrist -29.760099
rhand -11.914200 -5.810420
rhumerus 60.027302 19.725401 -31.716999
lowerneck -4.426070 -1.324080 -0.039234
lhand -17.438900 21.309601
ltibia 69.828300
head 7.492600 -1.668650 9.329200
rwrist -9.685810
lfingers 7.125020
rtoes 21.437500
lowerback 2.001440 8.115890 5.315150
rfingers 7.125020
lclavicle -0.000000 0.000000
upperneck 18.250401 -7.242760 28.763500
rfemur -34.445301 -15.985300 58.315300
thorax 5.420710 6.035240 -13.966600
rclavicle -0.000000 0.000000
rtibia 33.717800
lfoot 26.978800 1.529610
lhumerus -36.728100 30.117399 21.541300
rthumb 14.139700 -35.309299
root -2.245060 18.343700 8.311800 36.181900 -38.534500 -20.365801
ltoes 8.581550
lfemur -81.695099 -24.574499 35.938599
39
upperback 2.524310 11.639500 -11.820200
rfoot -29.894100 -19.798201
lradius 12.393900
lthumb 9.681660 48.507000
rradius 78.245003
lwrist -30.881701
rhand -15.097700 -4.123300
rhumerus 57.529598 8.265380 -29.440901
lowerneck -1.902520 -1.878040 3.130570
lhand -16.537399 18.749500
ltibia 72.485497
head 7.664230 -2.323610 9.808470
rwrist -17.687799
lfingers 7.125020
rtoes 21.328300
lowerback 3.180610 8.571810 6.417300
rfingers 7.125020
lclavicle 0.000000 0.000000
upperneck 19.002800 -8.918380 31.498600
rfemur -32.019199 -13.731200 58.513100
thorax 4.896330 6.434380 -16.349800
rclavicle 0.000000 0.000000
rtibia 32.986599
lfoot 29.117399 3.856020
lhumerus -34.114300 25.141199 34.375401
rthumb 11.070500 -33.811298
root -2.328320 18.262199 7.933070 35.659199 -39.987099 -21.810101
ltoes 14.001100
lfemur -80.253304 -22.660101 33.972198
40
upperback 0.436129 11.499800 -14.327700
rfoot -26.400801 -15.770100
lradius 13.352500
lthumb 10.537200 47.285999
rradius 90.922897
lwrist -13.931900
rhand -18.572599 -6.553680
rhumerus 48.683399 -19.116699 -25.945999
lowerneck -0.512248 -3.600250 6.211160
lhand -15.650600 17.570200
ltibia 69.155899
head 9.706680 -4.475190 9.806130
rwrist -34.833801
lfingers 7.125020
rtoes 20.616400
lowerback 3.097580 8.519980 8.950050
rfingers 7.125020
lclavicle -0.000000 0.000000
upperneck 22.499399 -13.887700 32.956902
rfemur -22.983700 -4.721990 55.058300
thorax 3.807040 6.376260 -21.394400
rclavicle -0.000000 0.000000
rtibia 30.870199
lfoot 8.488030 6.592520
lhumerus -34.497101 -6.325580 58.802502
rthumb 7.717700 -36.392799
root -2.410080 18.254601 7.669470 43.283298 -55.544102 -32.208698
ltoes 14.103000
lfemur -73.875298 -24.033501 22.433901
41
upperback -0.557804 3.526020 -10.540100
rfoot -20.425600 -1.794560
lradius 15.833100
lthumb 15.766200 46.489799
rradius 97.297302
lwrist -5.103280
rhand -25.160000 -13.189500
rhumerus 63.916401 -34.626202 -33.275501
lowerneck 0.669321 -3.426390 -0.444984
lhand -10.225800 17.111900
ltibia 49.847900
head 10.617000 -5.830230 8.178240
rwrist -44.079102
lfingers 7.125020
rtoes 16.418100
lowerback -1.635450 2.889230 7.039140
rfingers 7.125020
lclavicle 0.000000 -0.000000
upperneck 26.773300 -14.215800 25.841900
rfemur -9.151940 9.200370 49.762299
thorax 1.481240 1.749770 -15.532800
rclavicle 0.000000 -0.000000
rtibia 30.982000
lfoot 12.520500 -14.005200
lhumerus -45.831600 -7.256090 74.429199
rthumb 1.357070 -43.164902
root -2.914320 18.468201 7.682100 123.456001 -71.267502 -115.401001
ltoes 7.256990
lfemur -60.979599 -31.377899 16.796600
